<svg xmlns="http://www.w3.org/2000/svg" viewBox="0 0 900 620"><defs><linearGradient id="bg" x1="0" y1="0" x2="1" y2="1"><stop stop-color="#15243f"/><stop offset="1" stop-color="#07111f"/></linearGradient><linearGradient id="bolt" x1="0" x2="1"><stop stop-color="#ffd45a"/><stop offset="1" stop-color="#ff7a18"/></linearGradient><filter id="glow"><feGaussianBlur stdDeviation="5" result="b"/><feMerge><feMergeNode in="b"/><feMergeNode in="SourceGraphic"/></feMerge></filter></defs><rect width="900" height="620" rx="42" fill="url(#bg)"/><path d="M0 116c180 45 300-68 474 0s275 35 426-18v522H0Z" fill="#0d1b30" opacity=".8"/><g transform="translate(110 72)"><rect x="0" y="0" width="410" height="480" rx="28" fill="#182942" stroke="#3e5877" stroke-width="7"/><rect x="30" y="34" width="350" height="74" rx="16" fill="#07111f" stroke="#314863"/><text x="56" y="83" fill="#f8fafc" font-family="Arial" font-size="28" font-weight="800">MAIN PANEL</text><circle cx="342" cy="71" r="14" fill="#22c55e" filter="url(#glow)"/><g fill="#0b1424" stroke="#5f7b9d" stroke-width="5"><rect x="44" y="142" width="126" height="44" rx="10"/><rect x="240" y="142" width="126" height="44" rx="10"/><rect x="44" y="208" width="126" height="44" rx="10"/><rect x="240" y="208" width="126" height="44" rx="10"/><rect x="44" y="274" width="126" height="44" rx="10"/><rect x="240" y="274" width="126" height="44" rx="10"/><rect x="44" y="340" width="126" height="44" rx="10"/><rect x="240" y="340" width="126" height="44" rx="10"/></g><g stroke-linecap="round" fill="none" stroke-width="8"><path d="M171 164 C250 150 244 229 336 226" stroke="#ffd45a"/><path d="M171 230 C236 255 264 293 336 296" stroke="#38bdf8"/><path d="M171 296 C230 348 275 367 336 362" stroke="#fb7185"/><path d="M171 362 C237 399 286 405 336 400" stroke="#22c55e"/></g></g><g transform="translate(560 114)"><rect x="0" y="146" width="230" height="196" rx="25" fill="#101b2e" stroke="#496988" stroke-width="6"/><rect x="25" y="176" width="180" height="70" rx="14" fill="#16243e"/><rect x="48" y="255" width="135" height="48" rx="12" fill="#07111f"/><circle cx="42" cy="358" r="30" fill="#07111f" stroke="#536f8f" stroke-width="8"/><circle cx="188" cy="358" r="30" fill="#07111f" stroke="#536f8f" stroke-width="8"/><path d="M28 146h174l-22-76H53Z" fill="#253956" stroke="#496988" stroke-width="6"/><path d="M87 70 106 14h36l-16 56" stroke="url(#bolt)" stroke-width="13" stroke-linecap="round"/><text x="61" y="224" fill="#ffd45a" font-family="Arial" font-size="25" font-weight="900">GEN</text><path d="M63 280h100" stroke="#38bdf8" stroke-width="7" stroke-linecap="round"/></g><path d="M489 311c42-14 57-52 47-92" stroke="#ffd45a" stroke-width="8" fill="none" stroke-linecap="round" stroke-dasharray="1 18"/><path d="M535 281 512 308l35 4" fill="#ffd45a"/></svg>