<svg xmlns="http://www.w3.org/2000/svg" viewBox="0 0 760 520"><defs><linearGradient id="g" x1="0" y1="0" x2="1" y2="1"><stop stop-color="#102039"/><stop offset="1" stop-color="#07111f"/></linearGradient></defs><rect width="760" height="520" rx="38" fill="url(#g)"/><g transform="translate(72 76)"><rect x="0" y="0" width="330" height="372" rx="28" fill="#14243c" stroke="#486682" stroke-width="8"/><rect x="37" y="38" width="255" height="64" rx="16" fill="#07111f"/><text x="65" y="80" font-size="26" font-family="Arial" font-weight="900" fill="#f8fafc">LOAD CENTRE</text><circle cx="262" cy="70" r="13" fill="#22c55e"/><g fill="#0b1424" stroke="#63809d" stroke-width="5"><rect x="40" y="136" width="94" height="43" rx="10"/><rect x="198" y="136" width="94" height="43" rx="10"/><rect x="40" y="202" width="94" height="43" rx="10"/><rect x="198" y="202" width="94" height="43" rx="10"/><rect x="40" y="268" width="94" height="43" rx="10"/><rect x="198" y="268" width="94" height="43" rx="10"/></g><path d="M134 157c105 3 158 2 280 67" stroke="#ffd45a" stroke-width="10" stroke-linecap="round" fill="none"/><path d="M134 223c100 23 168 21 323-26" stroke="#38bdf8" stroke-width="10" stroke-linecap="round" fill="none"/><path d="M134 289c140 42 232 38 378-38" stroke="#fb7185" stroke-width="10" stroke-linecap="round" fill="none"/></g><g transform="translate(464 246)"><rect x="0" y="0" width="170" height="112" rx="18" fill="#0b1424" stroke="#486682" stroke-width="7"/><path d="M42 35h88M42 60h88M42 85h62" stroke="#f8fafc" stroke-width="8" stroke-linecap="round" opacity=".78"/><circle cx="136" cy="84" r="16" fill="#ffd45a"/></g></svg>