<svg xmlns="http://www.w3.org/2000/svg" viewBox="0 0 760 520"><defs><linearGradient id="g" x1="0" y1="0" x2="1" y2="1"><stop stop-color="#16243e"/><stop offset="1" stop-color="#07111f"/></linearGradient><linearGradient id="o" x1="0" x2="1"><stop stop-color="#ffd45a"/><stop offset="1" stop-color="#ff7a18"/></linearGradient></defs><rect width="760" height="520" rx="38" fill="url(#g)"/><path d="M75 378h610" stroke="#30465f" stroke-width="18" stroke-linecap="round"/><g transform="translate(116 118)"><rect x="0" y="90" width="528" height="218" rx="30" fill="#0b1424" stroke="#486682" stroke-width="8"/><rect x="52" y="43" width="392" height="66" rx="22" fill="#182942" stroke="#486682" stroke-width="8"/><path d="M96 43h305l-35-42H132Z" fill="#233653"/><rect x="58" y="135" width="164" height="86" rx="16" fill="#172843"/><g fill="#f8fafc" opacity=".8"><rect x="82" y="158" width="108" height="8" rx="4"/><rect x="82" y="181" width="108" height="8" rx="4"/><rect x="82" y="204" width="82" height="8" rx="4"/></g><rect x="270" y="132" width="188" height="116" rx="20" fill="#16243e" stroke="#2e4a66" stroke-width="5"/><circle cx="327" cy="190" r="34" fill="#07111f" stroke="#ffd45a" stroke-width="8"/><path d="M370 162h58M370 190h58M370 218h58" stroke="#38bdf8" stroke-width="8" stroke-linecap="round"/><rect x="50" y="280" width="70" height="54" rx="16" fill="#07111f" stroke="#486682" stroke-width="8"/><rect x="407" y="280" width="70" height="54" rx="16" fill="#07111f" stroke="#486682" stroke-width="8"/><path d="M258 24 226 91h42l-17 72 60-94h-43l16-45Z" fill="url(#o)"/></g></svg>